<svg xmlns="http://www.w3.org/2000/svg" style="display: none;">

  <symbol id="heroCheck" viewBox="0 0 20 15">
    <path d="M2.5 5L0 7.5L7.5 15L20 2.5L17.5 0L7.5 10L2.5 5Z" fill="#FBFBFB" fill-opacity="1" fill-rule="evenodd"/>
  </symbol>

  <symbol id="heroArrow" viewBox="0 0 13.7451 15.9778">
    <path d="M0 14.7742L10.8326 0.398743L12.4299 1.60236L1.59717 15.9778L0 14.7742ZM10.7802 2.13L3.84827 3.10419C3.2937 3.18213 2.79675 2.80762 2.71887 2.25311C2.64087 1.69855 3.01538 1.2016 3.56995 1.12366L11.4921 0.0102539C12.0466 -0.067688 12.5436 0.306824 12.6216 0.861389L13.7349 8.78351C13.8129 9.33807 13.4384 9.83502 12.8838 9.91296C12.3292 9.99091 11.8323 9.61639 11.7544 9.06183L10.7802 2.13Z" fill="#FBFBFB" fill-opacity="1" fill-rule="evenodd"/>
  </symbol>
</svg>
