<svg xmlns="http://www.w3.org/2000/svg" style="display: none;">
  <symbol id="heroCheck" viewBox="0 0 20 15">
    <path d="M2.5 5L0 7.5L7.5 15L20 2.5L17.5 0L7.5 10L2.5 5Z" fill="#FBFBFB" fill-opacity="1" fill-rule="evenodd"/>
  </symbol>
  <symbol id="heroArrow" viewBox="0 0 13.7451 15.9778">
    <path d="M0 14.7742L10.8326 0.398743L12.4299 1.60236L1.59717 15.9778L0 14.7742ZM10.7802 2.13L3.84827 3.10419C3.2937 3.18213 2.79675 2.80762 2.71887 2.25311C2.64087 1.69855 3.01538 1.2016 3.56995 1.12366L11.4921 0.0102539C12.0466 -0.067688 12.5436 0.306824 12.6216 0.861389L13.7349 8.78351C13.8129 9.33807 13.4384 9.83502 12.8838 9.91296C12.3292 9.99091 11.8323 9.61639 11.7544 9.06183L10.7802 2.13Z" fill="#FBFBFB" fill-opacity="1" fill-rule="evenodd"/>
  </symbol>
  <symbol id='eye' width="20" height="20" viewBox="0 0 20 20" fill="none" xmlns="http://www.w3.org/2000/svg">
    <defs>
        <clipPath id="eyeClipPath">
            <rect width="20" height="20" fill="white"/>
        </clipPath>
    </defs>
    <g clip-path="url(#eyeClipPath)">
        <path d="M10 3.33C15.83 3.33 19.16 10 19.16 10C19.16 10 15.83 16.66 10 16.66C4.16 16.66 0.83 10 0.83 10C0.83 10 4.16 3.33 10 3.33Z" stroke="#11101C" stroke-width="2" stroke-linejoin="round"/>
        <path d="M10 12.5C8.61 12.5 7.5 11.38 7.5 10C7.5 8.61 8.61 7.5 10 7.5C11.38 7.5 12.5 8.61 12.5 10C12.5 11.38 11.38 12.5 10 12.5Z" stroke="#11101C" stroke-width="2" stroke-linejoin="round"/>
    </g>
  </symbol>
  <symbol id="eye-off" width="20.000000" height="20.000000" viewBox="0 0 20 20" fill="none" xmlns:xlink="http://www.w3.org/1999/xlink">
    <defs>
        <clipPath id="clip31_2514">
            <rect id="eye-off" width="20.000000" height="20.000000" fill="white" fill-opacity="0"/>
        </clipPath>
    </defs>
    <rect id="eye-off" width="20.000000" height="20.000000" fill="#FFFFFF" fill-opacity="0"/>
    <g clip-path="url(#clip31_2514)">
        <path id="Vector" d="M14.95 14.95C13.52 16.03 11.79 16.63 10 16.66C4.16 16.66 0.83 10 0.83 10C1.86 8.06 3.3 6.38 5.04 5.04M8.25 3.53C8.82 3.39 9.41 3.33 10 3.33C15.83 3.33 19.16 10 19.16 10C18.66 10.94 18.05 11.83 17.36 12.65M11.76 11.76C11.53 12.01 11.26 12.2 10.95 12.34C10.64 12.48 10.31 12.55 9.98 12.56C9.64 12.56 9.31 12.5 9 12.38C8.68 12.25 8.4 12.06 8.16 11.83C7.93 11.59 7.74 11.3 7.61 10.99C7.49 10.68 7.43 10.35 7.43 10.01C7.44 9.68 7.51 9.35 7.65 9.04C7.79 8.73 7.98 8.46 8.23 8.23" stroke="#11101C" stroke-opacity="1.000000" stroke-width="2.000000" stroke-linejoin="round"/>
        <path id="Vector" d="M0.83 0.83L19.16 19.16" stroke="#11101C" stroke-opacity="1.000000" stroke-width="2.000000" stroke-linejoin="round" stroke-linecap="round"/>
    </g>
  </symbol>
</svg>
